<?xml version="1.0" standalone="no"?>
<!DOCTYPE svg PUBLIC "-//W3C//DTD SVG 20010904//EN"
 "http://www.w3.org/TR/2001/REC-SVG-20010904/DTD/svg10.dtd">
<svg version="1.0" xmlns="http://www.w3.org/2000/svg"
 width="984.000000pt" height="984.000000pt" viewBox="0 0 984.000000 984.000000"
 preserveAspectRatio="xMidYMid meet">
<metadata>
Created by potrace 1.11, written by Peter Selinger 2001-2013
</metadata>
<g transform="translate(0.000000,984.000000) scale(0.100000,-0.100000)"
fill="#000000" stroke="none">
<path d="M2940 9641 c-55 -12 -132 -56 -177 -100 -77 -78 -105 -164 -128 -396
-2 -22 -6 -53 -9 -70 -2 -16 -7 -52 -11 -80 -5 -49 -10 -82 -21 -160 -3 -22
-7 -58 -9 -79 -3 -21 -7 -55 -10 -75 -2 -20 -7 -54 -10 -76 -3 -22 -7 -56 -10
-75 -3 -19 -8 -57 -11 -85 -3 -27 -8 -61 -9 -75 -2 -14 -6 -47 -9 -75 -6 -53
-14 -113 -21 -155 -3 -14 -7 -50 -10 -80 -3 -30 -8 -66 -10 -80 -2 -14 -7 -51
-10 -83 -4 -32 -8 -68 -11 -80 -5 -27 -11 -74 -19 -153 -6 -65 18 -204 36
-204 5 0 9 -7 9 -16 0 -26 100 -123 154 -149 153 -75 330 -39 442 88 34 39 74
116 80 157 3 14 6 36 9 50 2 14 7 52 10 85 4 33 8 71 11 85 2 14 7 48 10 75 4
28 12 90 19 139 6 49 11 102 11 118 -1 15 2 28 5 28 4 0 7 18 7 40 1 60 11 66
40 23 14 -21 28 -40 31 -43 3 -3 19 -24 35 -47 16 -24 33 -43 39 -43 6 0 8 -3
4 -6 -3 -3 1 -13 8 -22 8 -10 59 -75 114 -145 55 -71 118 -149 140 -175 22
-26 72 -85 111 -131 39 -46 76 -89 83 -96 7 -7 37 -41 67 -76 202 -229 542
-565 814 -804 38 -33 75 -66 82 -72 7 -7 17 -13 23 -13 6 0 11 -4 11 -8 0 -11
247 -212 260 -212 6 0 10 -4 10 -9 0 -4 19 -21 43 -37 23 -16 53 -39 67 -52
14 -13 40 -32 58 -43 17 -11 32 -25 32 -30 0 -6 4 -8 8 -5 5 3 18 -2 28 -12
41 -37 407 -292 420 -292 3 0 23 -13 43 -28 20 -15 53 -36 74 -47 20 -11 37
-22 37 -26 0 -4 8 -9 18 -13 9 -3 31 -14 47 -25 95 -59 273 -161 282 -160 3 0
9 -3 12 -8 6 -8 11 -11 146 -83 167 -90 244 -128 249 -122 3 3 6 0 6 -6 0 -7
4 -12 9 -12 6 0 63 -25 128 -56 110 -53 161 -76 173 -79 3 0 23 -9 45 -19 75
-35 183 -79 345 -141 52 -20 104 -41 115 -45 26 -12 356 -121 375 -125 8 -2
27 -8 43 -14 15 -6 27 -8 27 -5 0 4 7 0 17 -7 9 -8 19 -13 22 -12 3 1 24 -3
46 -9 22 -6 45 -12 50 -14 11 -2 241 -60 295 -74 32 -8 97 -23 160 -36 14 -2
48 -9 75 -15 28 -6 64 -13 80 -15 17 -3 62 -11 100 -19 39 -8 97 -17 129 -21
63 -7 91 -11 91 -14 0 -1 18 -4 40 -5 22 -2 40 -4 40 -5 0 -1 20 -3 45 -5 25
-2 65 -6 90 -9 245 -30 323 -25 426 28 70 36 134 116 164 206 56 167 -23 360
-180 437 -68 33 -90 38 -210 48 -41 3 -97 8 -125 11 -27 3 -68 7 -90 9 -22 2
-40 4 -40 5 0 3 -32 8 -87 14 -53 6 -81 10 -148 23 -19 3 -44 7 -55 8 -11 2
-67 12 -125 25 -58 12 -117 23 -132 25 -15 2 -32 6 -38 10 -6 3 -23 8 -38 11
-34 6 -298 73 -332 84 -14 5 -72 23 -130 40 -58 17 -112 34 -120 37 -8 4 -17
7 -20 8 -3 1 -12 4 -20 7 -8 3 -51 18 -95 33 -44 15 -89 30 -100 35 -86 35
-130 50 -141 50 -8 0 -14 4 -14 10 0 5 -3 9 -7 8 -9 -3 -94 29 -133 49 -14 7
-29 13 -33 13 -5 0 -32 11 -60 24 -29 13 -74 34 -102 46 -86 38 -446 217 -530
263 -147 81 -380 220 -383 228 -2 5 -8 7 -13 3 -5 -3 -9 0 -9 5 0 6 -5 11 -10
11 -6 0 -43 21 -83 48 -40 26 -80 52 -88 57 -9 6 -49 33 -88 60 -40 28 -80 55
-89 60 -9 6 -22 15 -29 22 -8 7 -27 20 -43 30 -17 9 -30 21 -30 25 0 4 -5 8
-10 8 -9 0 -80 51 -130 92 -8 7 -28 22 -45 34 -32 21 -67 49 -91 72 -8 7 -14
10 -14 6 0 -4 -6 -1 -12 7 -7 9 -49 44 -93 80 -44 35 -82 66 -85 69 -3 3 -30
25 -60 50 -67 55 -110 93 -162 143 -21 20 -41 37 -43 37 -15 0 -473 455 -585
581 -41 46 -81 91 -90 100 -8 8 -37 42 -65 74 -27 33 -64 75 -81 94 -56 65
-129 154 -164 201 -14 18 -44 57 -67 86 -24 29 -43 57 -43 63 0 6 -4 11 -8 11
-12 0 -55 61 -48 67 3 4 16 1 29 -5 12 -6 128 -51 257 -100 129 -49 244 -93
255 -97 73 -29 185 -24 266 13 91 42 169 127 199 217 16 47 22 172 10 180 -5
3 -7 11 -4 18 10 28 -44 124 -106 188 -38 39 -282 149 -312 141 -5 -1 -8 3 -8
8 0 6 -9 10 -19 10 -11 0 -22 4 -25 9 -3 5 -18 12 -33 16 -15 3 -75 25 -133
47 -224 87 -437 169 -485 187 -153 58 -274 105 -300 116 -16 7 -57 23 -90 35
-33 12 -69 26 -80 30 -27 11 -58 23 -67 25 -5 2 -11 4 -15 5 -5 1 -11 2 -15 1
-5 0 -8 4 -8 9 0 6 -8 10 -18 10 -10 0 -27 7 -38 15 -12 8 -24 12 -27 9 -3 -3
-20 2 -38 11 -36 19 -154 28 -209 16z"/>
<path d="M740 8103 c0 -4 -167 -7 -370 -6 l-370 1 1 -3741 c0 -3258 2 -3749
15 -3797 49 -181 173 -305 369 -368 11 -4 2109 -8 4661 -9 l4642 -3 0 500 c1
275 -2 500 -6 501 -4 0 -1958 2 -4342 2 l-4335 2 0 30 c1 17 -4 33 -10 37 -6
5 -6 8 0 8 6 0 10 58 10 155 0 97 -4 155 -10 155 -6 0 -6 3 0 8 14 10 14 304
0 314 -6 5 -7 8 0 8 14 0 14 462 0 472 -6 5 -6 8 0 8 14 0 14 230 0 230 -7 0
-7 3 0 8 14 10 14 704 0 714 -6 5 -7 8 0 8 14 0 14 230 0 230 -7 0 -7 3 0 8
14 10 14 704 0 714 -6 5 -7 8 0 8 14 0 14 230 0 230 -7 0 -7 3 0 8 14 10 14
232 0 232 -7 0 -7 3 0 8 14 10 14 304 0 314 -6 5 -7 8 0 8 6 0 10 58 10 155 0
97 -4 155 -10 155 -6 0 -6 3 0 8 14 10 14 304 0 314 -6 5 -7 8 0 8 14 0 14
462 0 472 -6 5 -6 8 0 8 14 0 14 230 0 230 -7 0 -7 3 0 8 14 10 14 704 0 714
-6 5 -7 8 0 8 14 0 14 230 0 230 -7 0 -7 3 0 8 7 4 10 127 10 340 0 287 -2
333 -15 337 -8 2 -63 4 -121 3 -58 -1 -111 2 -117 6 -7 4 -12 4 -12 -1z"/>
<path d="M2014 5381 c-2 -2 -4 -788 -4 -1746 l0 -1743 569 0 569 0 0 1744 c1
1628 0 1744 -16 1745 -55 3 -1114 3 -1118 0z"/>
<path d="M4046 3148 c1 -684 2 -1246 3 -1250 0 -4 255 -6 566 -6 l565 0 1 42
c0 22 1 583 1 1246 l1 1205 -569 3 -569 2 1 -1242z"/>
<path d="M6076 3662 c0 -43 3 -83 8 -90 4 -7 4 -12 -1 -12 -10 0 -10 -91 1
-108 4 -7 4 -12 -1 -12 -10 0 -10 -91 1 -108 4 -7 4 -12 -1 -12 -10 0 -10 -91
1 -108 4 -7 3 -12 -2 -12 -5 0 -8 -12 -6 -27 4 -33 5 -74 4 -235 0 -7 -1 -80
-3 -163 -1 -82 2 -156 6 -162 5 -7 6 -13 1 -13 -5 0 -9 -25 -9 -55 0 -30 4
-55 8 -55 5 0 5 -5 1 -12 -11 -17 -11 -108 -1 -108 5 0 5 -5 1 -12 -11 -17
-11 -108 -1 -108 5 0 5 -5 1 -12 -10 -16 -11 -228 -1 -228 5 0 5 -5 1 -12 -11
-18 -11 -88 1 -98 17 -13 1123 -11 1127 3 2 7 4 422 3 922 l0 910 -570 2 -570
2 1 -77z"/>
<path d="M8127 2792 c-16 -3 -17 -40 -17 -452 l0 -449 568 2 567 2 3 448 c2
421 1 447 -15 448 -78 2 -1093 3 -1106 1z"/>
</g>
</svg>
